<?xml version="1.0" encoding="UTF-8"?>
<svg version="1.1" xmlns="http://www.w3.org/2000/svg" width="560" height="920">
<path d="M0 0 C10.74254816 9.31555296 18.48376369 20.48700411 19.60546875 35.05078125 C19.93101563 49.9916698 15.47910784 62.43472588 5.4921875 73.58203125 C-4.24959749 82.8309772 -17.27755755 87.88926126 -30.6171875 87.9765625 C-41.92373072 87.43466859 -51.71096451 83.87396958 -60.6328125 76.95703125 C-61.32117188 76.44398437 -62.00953125 75.9309375 -62.71875 75.40234375 C-72.04518251 67.93405105 -77.40727591 57.59829957 -79.6328125 45.95703125 C-81.25626453 30.09071654 -76.88312365 17.27489025 -67.01171875 4.9296875 C-50.12960354 -13.57181526 -19.4193549 -15.06872791 0 0 Z M-49.1328125 23.76953125 C-53.29515977 30.0779046 -54.21933675 36.04406863 -53.234375 43.5 C-51.58963546 50.21779979 -47.29694324 55.14463556 -41.6328125 58.95703125 C-35.26479879 62.10429956 -29.53683961 62.50042298 -22.6328125 60.95703125 C-19.33152605 59.76549075 -19.33152605 59.76549075 -16.6328125 57.95703125 C-15.7871875 57.44140625 -14.9415625 56.92578125 -14.0703125 56.39453125 C-9.09176256 51.41598131 -6.35798747 45.5105557 -6.0078125 38.45703125 C-6.40431375 30.88064254 -9.48847038 24.5799219 -15.0703125 19.45703125 C-25.7661415 11.34927222 -40.69942353 13.41667845 -49.1328125 23.76953125 Z " fill="#000000" transform="translate(310.6328125,12.04296875)"/>
<path d="M0 0 C0 14.52 0 29.04 0 44 C23.48438219 35.61864805 46.964711 27.22625808 70.4375 18.8125 C71.58374847 18.40172211 72.72999695 17.99094421 73.91098022 17.56771851 C77.21028977 16.38528219 80.50946528 15.20247268 83.80859375 14.01953125 C84.77794861 13.67213898 85.74730347 13.3247467 86.74603271 12.96682739 C87.6721637 12.63464203 88.59829468 12.30245667 89.55249023 11.96020508 C90.44870087 11.64191742 91.3449115 11.32362976 92.26828003 10.99569702 C94.17432723 10.30095322 96.06957051 9.57615415 97.95559692 8.82876587 C98.91779144 8.45335663 99.87998596 8.07794739 100.87133789 7.69116211 C101.73038223 7.34548691 102.58942657 6.99981171 103.47450256 6.6436615 C108.33148769 5.40578484 112.45950917 7.27948679 117 9 C118.10859375 9.37833984 119.2171875 9.75667969 120.359375 10.14648438 C123.55120306 11.23725394 126.72890305 12.35833733 129.90350342 13.49771118 C133.61233879 14.8285578 137.32613051 16.14547947 141.0390625 17.46484375 C142.2256395 17.88711494 142.2256395 17.88711494 143.43618774 18.31791687 C153.40023819 21.86054863 163.3881379 25.33482227 173.375 28.8125 C176.01896211 29.73354842 178.66289219 30.65468871 181.30679321 31.57591248 C182.88661603 32.12630082 184.46650067 32.67651181 186.04647827 33.22645569 C195.36840149 36.47269351 204.6831503 39.73910261 214 43 C214 28.81 214 14.62 214 0 C226.37445458 3.37485125 226.37445458 3.37485125 232.42578125 5.41015625 C233.37991158 5.72961464 233.37991158 5.72961464 234.35331726 6.05552673 C236.34069136 6.72164186 238.32661785 7.39195186 240.3125 8.0625 C241.65680541 8.51395675 243.00120601 8.96513014 244.34570312 9.41601562 C246.81089857 10.24313144 249.27541193 11.07217529 251.73950195 11.90258789 C254.82437819 12.94088955 257.91210774 13.97070258 261 15 C261 47.34 261 79.68 261 113 C218.40013794 99.18382852 218.40013794 99.18382852 204.87890625 94.59765625 C203.29652287 94.06284676 201.71407734 93.5282211 200.13157654 92.99375916 C196.88665147 91.89735188 193.6422034 90.79955106 190.39819336 89.70043945 C186.37230461 88.3364255 182.34555847 86.97496588 178.31846046 85.61452675 C175.09777029 84.52631858 171.87748183 83.43692394 168.65717697 82.34757614 C166.27169706 81.54117039 163.88569537 80.73632235 161.49966431 79.93154907 C153.99245551 77.39557601 146.496202 74.83351215 139.02290058 72.19905567 C135.51618345 70.96334552 132.00623598 69.73694751 128.49622917 68.51061821 C126.82397463 67.92299086 125.15346089 67.33038316 123.48483467 66.73253059 C121.17491405 65.90503706 118.8596881 65.09438807 116.54272461 64.28686523 C115.52616319 63.9148401 115.52616319 63.9148401 114.48906517 63.5352993 C107.24998406 61.05146172 101.86779162 63.23901373 94.94360352 65.73071289 C93.29085851 66.31492599 91.63810218 66.89910707 89.9853363 67.48326111 C88.66765164 67.95208867 88.66765164 67.95208867 87.32334709 68.4303875 C62.32859224 77.313088 37.17410672 85.7122034 12.00512695 94.08520508 C6.00442058 96.08155065 0.00560162 98.08350639 -5.99276066 100.08688259 C-10.6629449 101.64600624 -15.33406766 103.20230165 -20.00549126 104.7577076 C-22.22305071 105.4964503 -24.44031493 106.23607987 -26.65727425 106.97662163 C-29.70944505 107.99569238 -32.76285719 109.01094965 -35.81665039 110.02514648 C-36.72373245 110.32885666 -37.63081451 110.63256683 -38.56538391 110.94548035 C-39.38947754 111.21829834 -40.21357117 111.49111633 -41.06263733 111.77220154 C-41.77925065 112.01082129 -42.49586397 112.24944105 -43.23419285 112.49529171 C-45 113 -45 113 -47 113 C-47 80.66 -47 48.32 -47 15 C-2 0 -2 0 0 0 Z " fill="#000000" transform="translate(173,150)"/>
<path d="M0 0 C0.99 0.495 0.99 0.495 2 1 C1.98806632 2.13492187 1.97613263 3.26984374 1.96383733 4.43915719 C1.43950801 54.5376881 0.96213477 104.63638254 0.71931458 154.73713684 C0.7156162 155.49751621 0.71191783 156.25789559 0.70810738 157.04131676 C0.62797756 173.57269674 0.55612003 190.10410302 0.49276508 206.63555558 C0.46163845 214.74442948 0.42868689 222.8532955 0.39477539 230.9621582 C0.39143215 231.7690197 0.38808891 232.5758812 0.38464435 233.40719304 C0.27573118 259.48646388 0.04669225 285.56296992 -0.24571582 311.64077502 C-0.54596148 338.47484642 -0.72287973 365.30704354 -0.74811853 392.14284788 C-0.75175271 395.94680462 -0.75677357 399.75075837 -0.76264 403.5547123 C-0.7637515 404.30326836 -0.764863 405.05182441 -0.76600818 405.82306399 C-0.7873365 417.79795044 -0.93583092 429.76792638 -1.13382791 441.74105237 C-1.33088198 453.82553626 -1.38935651 465.90475072 -1.31338117 477.99064567 C-1.27599011 484.52322019 -1.29944208 491.04398068 -1.48797798 497.57454872 C-2.12647521 520.86605214 -2.42395744 540.30119098 13.99682048 558.26413998 C22.03718198 566.5571805 30.79460991 574.03476982 40 581 C43.04639441 579.54081318 45.16620577 578.08247365 47.55932617 575.68359375 C48.23650192 575.00949463 48.91367767 574.33539551 49.6113739 573.64086914 C50.3313002 572.91375732 51.0512265 572.18664551 51.79296875 571.4375 C52.53960281 570.69040771 53.28623688 569.94331543 54.05549622 569.17358398 C55.63043531 567.595627 57.20294642 566.01524347 58.77319336 564.43261719 C61.18355403 562.0039759 63.60184503 559.58345607 66.02148438 557.1640625 C67.54995247 555.63067997 69.07796313 554.09684132 70.60546875 552.5625 C71.69446724 551.47183228 71.69446724 551.47183228 72.8054657 550.35913086 C73.47318497 549.68503174 74.14090424 549.01093262 74.82885742 548.31640625 C75.41857834 547.72287354 76.00829926 547.12934082 76.6158905 546.51782227 C79.87937608 542.93906561 79.14406208 538.84328021 79.1386652 534.2736721 C79.14292853 532.8950302 79.14292853 532.8950302 79.14727798 531.48853695 C79.1556744 528.37405284 79.15689705 525.25960568 79.15821838 522.14511108 C79.16278037 519.90361747 79.16777985 517.66212471 79.17318195 515.42063296 C79.18681385 509.23409895 79.19419597 503.04757046 79.20060861 496.86102533 C79.20777177 490.88301507 79.21959761 484.90501459 79.23132664 478.92701195 C79.25516646 466.69373091 79.2743583 454.46044666 79.29092598 442.22715378 C79.3073516 430.10990331 79.32582786 417.99265884 79.34705925 405.8754158 C79.34837686 405.12276698 79.34969446 404.37011816 79.351052 403.5946618 C79.35775383 399.77253527 79.36449246 395.95040882 79.37124526 392.12828238 C79.41904289 365.0370248 79.46221796 337.94576162 79.50268555 310.85449219 C79.54201645 284.53124586 79.58343436 258.20800417 79.62768555 231.88476562 C79.62904808 231.07375632 79.63041061 230.26274701 79.63181442 229.42716166 C79.64549948 221.28287468 79.65922705 213.13858777 79.67298577 204.99430091 C79.70101436 188.40258326 79.72875915 171.81086514 79.7563324 155.21914673 C79.7576006 154.45624082 79.7588688 153.69333492 79.76017542 152.90731065 C79.84487018 101.93821462 79.92292793 50.96910806 80 0 C95.85885456 3.96471364 111.40512852 9.09875468 127 14 C127 174.71 127 335.42 127 501 C127.66 501 128.32 501 129 501 C129.25136719 500.41089844 129.50273437 499.82179688 129.76171875 499.21484375 C131.15455401 496.72355798 132.6208572 495.37699586 134.8125 493.5625 C140.58029142 488.75414777 145.64224665 483.29997311 150.75 477.8125 C151.36834717 477.14831055 151.98669434 476.48412109 152.6237793 475.79980469 C160.71426048 467.09428236 168.59549477 458.30150493 176 449 C176.50660156 448.36594238 177.01320313 447.73188477 177.53515625 447.07861328 C191.25175003 429.85585709 203.91063969 412.0299357 215 393 C215.53592773 392.08686035 216.07185547 391.1737207 216.62402344 390.23291016 C230.4608537 366.53349039 242.04494234 341.94921799 251 316 C251.34901367 314.99404785 251.69802734 313.9880957 252.05761719 312.95166016 C258.91676754 292.95897537 263.94427613 272.69050748 267.25 251.8125 C267.40114258 250.86576416 267.55228516 249.91902832 267.70800781 248.94360352 C270.93658555 227.12155183 271.28195483 205.38117077 271.20278788 183.37857556 C271.1900817 179.23602822 271.18909467 175.0934763 271.18673706 170.95091248 C271.1805796 163.14597168 271.16424852 155.3410885 271.14403808 147.53617281 C271.12149788 138.63376135 271.11064062 129.7313468 271.10064721 120.82891381 C271.07987551 102.55257683 271.04481417 84.27629308 271 66 C269.7632251 65.55084229 268.5264502 65.10168457 267.25219727 64.63891602 C262.67971857 62.97750465 258.10857865 61.31243702 253.5378418 59.64624023 C251.55643674 58.9245321 249.57466619 58.2038266 247.5925293 57.48413086 C244.74952894 56.4516691 241.90784682 55.4156517 239.06640625 54.37890625 C238.17474258 54.05596085 237.28307892 53.73301544 236.36439514 53.40028381 C235.54361984 53.10004807 234.72284454 52.79981232 233.87719727 52.49047852 C233.15105728 52.22622574 232.4249173 51.96197296 231.67677307 51.68971252 C230 51 230 51 229 50 C228.9071274 48.58774954 228.88253228 47.17091066 228.88647461 45.75561523 C228.88655014 44.85475693 228.88662567 43.95389862 228.88670349 43.02574158 C228.89186478 42.04658279 228.89702606 41.06742401 228.90234375 40.05859375 C228.90446617 38.56248314 228.90446617 38.56248314 228.90663147 37.03614807 C228.91224886 33.83656876 228.92480429 30.63705831 228.9375 27.4375 C228.94251276 25.27408955 228.94707605 23.11067801 228.95117188 20.94726562 C228.96222393 15.63148675 228.97897896 10.31574829 229 5 C236.78740533 6.52279631 244.10617067 8.96357515 251.58984375 11.578125 C252.90133446 12.03218001 254.21298858 12.48576326 255.52479553 12.93890381 C258.96672193 14.1291058 262.40663313 15.32502374 265.84606934 16.5223999 C271.30479474 18.42146795 276.76682464 20.31102893 282.22826004 22.20228577 C284.19959368 22.88534094 286.17054435 23.56949222 288.14144897 24.25378418 C296.10257853 27.01515892 304.07674051 29.73163594 312.09397888 32.32623291 C316.89553541 33.89553541 316.89553541 33.89553541 318 35 C318.10432154 37.38424812 318.14333131 39.73977428 318.14044189 42.12478638 C318.14489858 43.25707163 318.14489858 43.25707163 318.1494453 44.41223133 C318.15817239 46.96249463 318.15964408 49.51271119 318.16113281 52.06298828 C318.16575924 53.88473614 318.17078366 55.70648302 318.17617798 57.52822876 C318.18934632 62.50116642 318.19575892 67.47409055 318.20018864 72.44704294 C318.20312046 75.56548525 318.20722612 78.68392389 318.21169281 81.80236435 C318.22539738 91.59000511 318.23504186 101.37763744 318.2388947 111.16528714 C318.24334225 122.39984113 318.26072173 133.63427144 318.2898953 144.86878788 C318.31171862 153.5817495 318.32161031 162.29467693 318.32293582 171.00766551 C318.32397194 176.19372805 318.32961583 181.37967485 318.34775543 186.56570816 C318.6753861 286.05320122 288.83332254 376.79634697 223 468 C222.58572754 468.53898926 222.17145508 469.07797852 221.74462891 469.63330078 C216.13799454 476.92130274 210.35893895 484.02424076 204.32958984 490.96704102 C201.39521848 494.34881169 198.57575963 497.78787982 195.8125 501.3125 C191.03081593 507.22599552 185.63563834 512.49940986 180.20239258 517.81176758 C176.1423098 521.79223171 172.32459332 525.87516631 168.6171875 530.18481445 C166.34649929 532.73351114 163.86451665 534.98628648 161.3125 537.25 C156.99063 541.12676959 152.82665875 545.11631598 148.75 549.25 C144.99823023 553.04487292 141.18763185 556.69845536 137.125 560.16015625 C134.36444485 562.55026925 131.68403508 565.02488935 129 567.5 C125.04097932 571.1451734 121.04871116 574.74261096 116.98046875 578.265625 C114.68866845 580.27264538 112.44003248 582.32402851 110.1875 584.375 C106.64839998 587.57652433 103.02896894 590.63146063 99.3125 593.625 C95.57540409 596.6482686 92.11003908 599.75465356 88.78149414 603.21801758 C87.01017562 604.98982159 85.17608557 606.62785032 83.27734375 608.26171875 C79.18580852 611.81916845 75.19828922 615.47213833 71.25 619.1875 C70.5391626 619.85587891 69.8283252 620.52425781 69.09594727 621.21289062 C59.86989328 629.94446075 50.93602074 638.97343501 42 648 C38.64956603 646.54811406 36.49513804 644.7180341 33.953125 642.11328125 C33.19 641.33919922 32.426875 640.56511719 31.640625 639.76757812 C30.85171875 638.95740234 30.0628125 638.14722656 29.25 637.3125 C24.22938515 632.17892131 19.18832153 627.18968358 13.73730469 622.51245117 C11.55005635 620.60829105 9.51875153 618.58086696 7.5 616.5 C4.15080491 613.11072907 0.71123635 609.91601213 -2.90234375 606.8125 C-5.29917312 604.74149659 -7.65000182 602.62396782 -10 600.5 C-12.98062721 597.81016569 -15.97245233 595.13689636 -19 592.5 C-23.71704465 588.38916189 -28.35500129 584.19182811 -33 580 C-33.804375 579.278125 -34.60875 578.55625 -35.4375 577.8125 C-40.50164226 573.26775695 -45.53395973 568.68978956 -50.54077148 564.08203125 C-53.64428147 561.229325 -56.78074739 558.41849583 -59.9375 555.625 C-64.71658842 551.35101848 -69.22728957 546.83246201 -73.71069336 542.25244141 C-76.56808713 539.25247489 -76.56808713 539.25247489 -80 537 C-80 536.34 -80 535.68 -80 535 C-80.59385498 534.73662842 -81.18770996 534.47325684 -81.79956055 534.2019043 C-84.09815517 532.94638657 -85.45343222 531.69938502 -87.20703125 529.76953125 C-87.79419922 529.13080078 -88.38136719 528.49207031 -88.98632812 527.83398438 C-89.58896484 527.16689453 -90.19160156 526.49980469 -90.8125 525.8125 C-92.00521437 524.50532667 -93.19922314 523.19933323 -94.39453125 521.89453125 C-94.98588867 521.24887207 -95.57724609 520.60321289 -96.18652344 519.93798828 C-98.53526222 517.42798714 -100.96355545 515.00642632 -103.41625977 512.59838867 C-105.67672321 510.3170176 -107.77236554 507.90956199 -109.8671875 505.4765625 C-111.54909757 503.52357535 -113.24274906 501.58331535 -114.9453125 499.6484375 C-121.79511542 491.84157834 -128.38487019 483.8915242 -134.71777344 475.66015625 C-135.93972057 474.07804648 -137.17652771 472.50744705 -138.4140625 470.9375 C-155.51218157 449.10537402 -170.19270585 425.77957639 -183.59570312 401.53417969 C-184.76494228 399.42418274 -185.94857212 397.32369257 -187.140625 395.2265625 C-227.85934063 321.83022215 -237.04001825 242.10428585 -237.2734375 159.73828125 C-237.27608628 158.86532528 -237.27873506 157.9923693 -237.2814641 157.09296012 C-237.30647245 148.83697115 -237.3283898 140.58098124 -237.34119225 132.32496357 C-237.35755867 121.85643481 -237.39123345 111.38826863 -237.44759309 100.9198764 C-237.48619467 93.49508229 -237.50580977 86.07038601 -237.51111281 78.64549416 C-237.51476253 74.23081862 -237.52675591 69.81653751 -237.55921555 65.40197182 C-237.58914472 61.27698237 -237.59566321 57.15263017 -237.58383179 53.02755547 C-237.58361019 51.5145747 -237.59198647 50.00156519 -237.60948563 48.48868561 C-237.63203523 46.42802385 -237.62395578 44.36970649 -237.60800171 42.30903625 C-237.61131186 41.15612248 -237.614622 40.00320871 -237.61803246 38.81535816 C-237 36 -237 36 -234.65839577 34.17994976 C-231.56427288 32.80659911 -228.47566399 31.6880394 -225.25390625 30.64453125 C-224.58620209 30.42562729 -223.91849792 30.20672333 -223.2305603 29.98118591 C-221.7747828 29.50415506 -220.3181629 29.02968908 -218.86080933 28.55749512 C-214.86358717 27.26179877 -210.87287716 25.9464544 -206.8828125 24.62890625 C-206.0273735 24.34659149 -205.17193451 24.06427673 -204.29057312 23.77340698 C-197.33413442 21.46657614 -190.40954931 19.07359411 -183.4921875 16.65234375 C-182.44709518 16.28667801 -181.40200287 15.92101227 -180.32524109 15.54426575 C-176.16005578 14.08512902 -171.99569972 12.62374731 -167.83425903 11.15396118 C-164.92074773 10.12496219 -162.00541997 9.1012554 -159.08984375 8.078125 C-157.77504532 7.61024818 -157.77504532 7.61024818 -156.4336853 7.13291931 C-155.62791046 6.85090164 -154.82213562 6.56888397 -153.99194336 6.27832031 C-153.29000351 6.03027649 -152.58806366 5.78223267 -151.86485291 5.52667236 C-150 5 -150 5 -147 5 C-147 19.85 -147 34.7 -147 50 C-152.66805981 52.51913769 -158.216486 54.91537082 -164.02734375 57.015625 C-164.74233536 57.27631775 -165.45732697 57.5370105 -166.19398499 57.80560303 C-167.68482158 58.34821511 -169.17623581 58.88924267 -170.66821289 59.42871094 C-172.95833028 60.25753879 -175.2458358 61.09330401 -177.53320312 61.9296875 C-178.98943348 62.45874598 -180.44580845 62.98740664 -181.90234375 63.515625 C-182.92726173 63.8905307 -182.92726173 63.8905307 -183.97288513 64.27301025 C-188.76999812 66 -188.76999812 66 -191 66 C-190.93895816 84.50074343 -190.86111304 103.00134075 -190.76428509 121.50193119 C-190.71968157 130.09575725 -190.68018995 138.68954513 -190.65356445 147.28344727 C-190.63029227 154.79052126 -190.59658253 162.29747067 -190.55129844 169.80444521 C-190.52775107 173.76423544 -190.50877507 177.72390534 -190.50238609 181.6837635 C-190.34467212 268.16505512 -165.98963594 348.80130422 -91.59765625 452.96484375 C-89.09166517 455.89289649 -86.66491319 458.87168156 -84.25 461.875 C-81.26474221 465.545486 -78.18364261 468.95053047 -74.77319336 472.22583008 C-73.04193818 473.95803873 -71.45754231 475.75229112 -69.87109375 477.6171875 C-65.68402922 482.43474734 -61.21023493 486.93688113 -56.6875 491.4375 C-55.87732422 492.25154297 -55.06714844 493.06558594 -54.23242188 493.90429688 C-53.45833984 494.67708984 -52.68425781 495.44988281 -51.88671875 496.24609375 C-50.83810669 497.29301392 -50.83810669 497.29301392 -49.76831055 498.36108398 C-48.08607832 500.07362678 -48.08607832 500.07362678 -46 501 C-46 340.29 -46 179.58 -46 14 C-32.8 10.04 -19.6 6.08 -6 2 C-4.02 1.34 -2.04 0.68 0 0 Z " fill="#000000" transform="translate(239,268)"/>
</svg>
